<?xml version="1.0" encoding="UTF-8"?> <svg xmlns="http://www.w3.org/2000/svg" width="800" height="800" viewBox="0 0 800 800" fill="none"> <path d="M463.273 362.152C466.257 362.177 469.137 361.053 471.315 359.013C473.494 356.973 474.804 354.174 474.975 351.194C475.044 350.219 474.912 349.239 474.587 348.317C474.263 347.395 473.752 346.549 473.088 345.831C472.33 345.087 471.428 344.506 470.437 344.124C469.446 343.742 468.387 343.568 467.325 343.611C464.354 343.599 461.491 344.731 459.333 346.774C457.174 348.817 455.886 351.612 455.734 354.58C455.662 355.568 455.792 356.56 456.117 357.495C456.441 358.431 456.953 359.29 457.622 360.021C458.361 360.759 459.244 361.336 460.217 361.718C461.189 362.1 462.229 362.278 463.273 362.241" fill="black"></path> <path d="M352.09 442.336C350.056 442.266 348.035 442.691 346.202 443.575C344.368 444.459 342.777 445.775 341.564 447.409L340.854 442.913H334.192V443.324C333.916 445.502 333.516 447.663 332.993 449.796L327.175 473.012H336.257L340.576 455.97C341.276 453.227 343.13 448.675 347.715 448.675C349.936 448.675 351.046 449.785 350.946 452.006C350.872 452.941 350.693 453.864 350.413 454.759L346.749 468.882L345.561 473.034H354.899L359.828 453.383C360.109 452.266 360.277 451.124 360.328 449.974C360.528 445.211 357.452 442.358 352.156 442.358" fill="black"></path> <path d="M469.447 442.336C467.412 442.263 465.39 442.686 463.556 443.571C461.722 444.455 460.131 445.773 458.921 447.41L458.211 442.914H451.549V443.324C451.238 445.401 450.905 447.599 450.35 449.797L444.532 473.013H453.625L457.878 455.959C458.599 453.228 460.453 448.676 465.028 448.676C467.248 448.676 468.359 449.786 468.27 452.007C468.185 452.94 468.006 453.863 467.737 454.76L464.073 468.883L462.885 473.035H472.2L477.152 453.383C477.427 452.263 477.587 451.117 477.629 449.964C477.84 445.212 474.765 442.359 469.48 442.359" fill="black"></path> <path d="M615.38 442.124C613.35 442.051 611.333 442.474 609.504 443.359C607.675 444.243 606.09 445.561 604.888 447.198L604.155 442.702H597.493V443.113C597.171 445.211 596.838 447.409 596.283 449.574L590.477 472.801H599.559L603.811 455.747C604.51 453.038 606.387 448.464 610.928 448.464C613.148 448.464 614.258 449.574 614.192 451.795C614.102 452.727 613.923 453.649 613.659 454.548L609.984 468.649L608.874 472.801H618.189L623.118 453.16C623.395 452.044 623.559 450.902 623.607 449.752C623.796 444.978 620.742 442.124 615.435 442.124" fill="black"></path> <path d="M502.21 441.516C496.44 441.617 490.928 443.928 486.811 447.973C482.695 452.017 480.286 457.487 480.082 463.255C479.86 469.328 482.991 473.092 488.254 473.092C492.173 473.092 495.515 471.082 498.146 467.085C497.98 469.727 498.746 471.526 500.367 472.414H500.456H505.463L505.53 471.959C505.746 468.476 506.281 465.019 507.128 461.634L511.57 443.003L511.248 442.859C508.323 441.924 505.269 441.459 502.199 441.482M500.611 454.428C498.824 461.5 495.126 466.641 491.796 466.641C489.664 466.641 488.654 465.231 488.798 462.322C489.064 454.761 494.682 447.889 500.578 447.889C501.12 447.875 501.662 447.935 502.188 448.066L500.611 454.428Z" fill="black"></path> <path d="M648.743 441.472C642.978 441.588 637.475 443.906 633.364 447.95C629.253 451.995 626.847 457.459 626.638 463.223C626.427 469.285 629.569 473.048 634.821 473.048C638.729 473.048 642.06 471.039 644.691 467.053C644.558 469.673 645.313 471.494 646.911 472.371L647 472.427H652.041V471.96C652.288 468.48 652.827 465.026 653.651 461.635L658.092 442.993L657.77 442.849C654.845 441.915 651.791 441.45 648.721 441.472M647.133 454.418C645.368 461.502 641.582 466.631 638.329 466.631C636.186 466.631 635.165 465.221 635.298 462.323C635.564 454.74 641.194 447.823 647.1 447.823C647.644 447.807 648.187 447.874 648.71 448.023L647.133 454.418Z" fill="black"></path> <path d="M378.415 448.453H386.298L387.53 443.29H379.647L382.223 431.155H377.049L370.898 443.302H366.191L364.947 448.475H369.677L365.724 464.863C364.048 471.591 368.489 473.512 374.007 473.501C376.662 473.523 379.313 473.289 381.923 472.801L382.623 468.183C380.979 468.237 379.334 468.152 377.704 467.927C375.117 467.383 374.096 466.184 374.929 462.964L378.415 448.453Z" fill="black"></path> <path d="M406.215 442.546C398.244 442.546 389.883 448.564 387.574 458.178C385.353 467.627 390.094 473.467 399.11 473.434C407.27 473.434 409.935 471.924 412.122 471.135L411.567 466.217C409.046 467.177 406.37 467.666 403.673 467.66C397.167 467.66 395.313 464.052 396.445 459.366L416.43 459.289C419.239 447.498 413.654 442.535 406.238 442.546M408.336 454.281H397.788C399.054 450.951 401.119 448.386 404.45 448.364C407.781 448.342 408.725 450.507 408.347 454.248" fill="black"></path> <path d="M442.766 442.425C438.924 442.425 434.894 446.266 433.606 447.543L434.383 443.102H426.167L419.128 472.646H427.821L432.662 452.306C434.017 451.362 436.903 449.286 439.413 449.286C440.658 449.204 441.9 449.498 442.976 450.13L447.562 443.946C446.2 442.874 444.497 442.33 442.766 442.414" fill="black"></path> <path d="M532.321 430.735H527.18L521.029 442.893H516.3L515.101 448.067H519.797L515.889 464.443C514.235 471.16 518.653 473.103 524.16 473.07C526.815 473.094 529.466 472.863 532.077 472.381L532.765 467.774C531.128 467.824 529.49 467.731 527.869 467.496C525.293 466.974 524.238 465.764 525.082 462.556L528.535 448.033H536.429L537.65 442.848H529.767L532.321 430.735Z" fill="black"></path> <path d="M576.21 442.08C567.327 442.08 558.09 448.109 555.836 457.624C553.582 467.139 559.955 473.034 568.849 473.023C577.742 473.012 586.979 467.006 589.233 457.535C591.487 448.064 585.103 442.102 576.21 442.113M579.896 457.557C578.697 462.598 574.622 467.139 570.236 467.172C565.018 467.172 563.83 462.62 565.04 457.602C566.25 452.583 569.581 447.987 574.822 447.976C579.185 447.976 581.106 452.417 579.896 457.557Z" fill="black"></path> <path d="M403.351 418.3L410.012 389.355C411.123 384.725 414.065 376.964 421.792 376.964C425.645 376.964 427.477 378.807 427.41 382.582C427.306 384.16 427.038 385.723 426.611 387.245L420.915 411.249L419.028 418.3H434.793L442.454 384.892C442.882 382.999 443.128 381.069 443.187 379.129C443.343 371.024 438.069 366.184 429.098 366.184C421.67 366.184 416.463 368.715 411.511 374.833L410.179 367.183H398.943L398.843 367.893C398.436 371.579 397.836 375.24 397.044 378.863L388.007 418.3H403.351Z" fill="black"></path> <path d="M545.233 389.355C546.343 384.736 549.297 376.975 557.024 376.975C560.866 376.975 562.698 378.807 562.575 382.527C562.486 384.101 562.226 385.661 561.798 387.179L556.125 411.338L554.548 418.355H570.014L577.686 384.958C578.116 383.059 578.351 381.12 578.386 379.174C578.552 371.08 573.29 366.25 564.33 366.25C556.88 366.25 551.684 368.793 546.743 374.888L545.4 367.227H534.119L534.03 367.938C533.639 371.605 533.05 375.248 532.265 378.852L523.228 418.299H538.594L545.233 389.355Z" fill="black"></path> <path d="M502.176 366.183C482.879 366.183 469.134 380.35 468.757 400.601C468.523 413.547 479.371 419.353 490.24 419.353C509.115 419.353 523.171 404.82 523.548 384.813C523.793 371.923 512.99 366.161 502.176 366.149M492.394 408.573C487.098 408.573 484.622 405.475 484.689 399.113C484.856 391.164 489.963 376.908 499.611 376.908C506.439 376.908 507.783 382.06 507.694 386.367C507.56 393.906 502.02 408.573 492.394 408.573Z" fill="black"></path> <path d="M648.92 419.386C656.17 419.386 662.243 415.977 667.006 409.249C666.829 413.69 668.305 416.776 671.347 418.231L671.514 418.298H680.796V417.52C681.139 411.647 682.031 405.819 683.46 400.111L691.032 368.646L690.388 368.413C686.902 367.103 679.508 366.093 673.568 366.093C654.593 366.093 633.831 380.127 633.398 402.798C633.221 413.035 639.15 419.386 648.942 419.386M670.825 376.918C671.831 376.895 672.836 377.007 673.812 377.251L671.125 387.976C668.116 399.967 661.41 408.66 655.237 408.66C651.263 408.66 649.364 406.284 649.453 401.366C649.708 388.587 659.878 376.94 670.825 376.94" fill="black"></path> <path d="M599.126 393.573H611.094C625.306 393.573 640.294 383.181 640.638 365.139C640.838 355.336 632.478 347.675 621.62 347.675H593.863L578.897 411.193L577.331 418.221H593.585L599.126 393.573ZM607.153 358.933H614.214C619.166 358.933 624.406 361.586 624.318 366.516C624.162 375.576 617.656 382.304 605.587 382.304H601.646L607.153 358.933Z" fill="black"></path> <path d="M353.178 419.242C371.642 419.242 382.612 410.582 386.72 392.751L397.167 347.23H380.902L379.88 352.293C379.725 353.014 370.665 392.262 370.554 392.673C368.334 402.277 363.237 407.107 355.477 407.107C348.36 407.107 344.008 403.776 344.096 398.424C344.171 396.581 344.435 394.751 344.885 392.962L355.443 347.219H339.178L338.29 351.96L328.708 393.039C328.189 395.389 327.906 397.784 327.864 400.19C327.598 414.246 340.766 419.253 353.178 419.253" fill="black"></path> <path d="M457.134 418.376L468.936 367.07H453.559L443.1 411.326L441.379 418.376H457.134Z" fill="black"></path> <path d="M537.871 472.389L546.553 472.378L553.615 442.834L544.91 442.856L537.871 472.389Z" fill="black"></path> <path d="M552.249 429.255C550.544 429.236 548.899 429.877 547.657 431.045C546.415 432.212 545.673 433.815 545.587 435.517C545.55 436.084 545.629 436.652 545.82 437.187C546.011 437.721 546.31 438.211 546.697 438.626C547.121 439.044 547.625 439.372 548.178 439.591C548.731 439.811 549.322 439.917 549.917 439.903C551.619 439.906 553.257 439.258 554.495 438.091C555.734 436.925 556.479 435.328 556.579 433.63C556.608 433.067 556.526 432.505 556.335 431.975C556.144 431.445 555.85 430.958 555.468 430.543C555.033 430.11 554.512 429.772 553.938 429.55C553.365 429.328 552.752 429.228 552.138 429.255" fill="black"></path> <path d="M320.626 428.226L309.356 472.992H319.293L329.963 428.204L320.626 428.226Z" fill="black"></path> <path d="M731.59 367.36L713.515 403.566L712.127 367.327H695.972L700.769 420.287C697.827 432.067 688.145 430.834 682.072 430.834H671.047C670.536 430.866 670.043 431.032 669.617 431.317C669.192 431.602 668.85 431.995 668.627 432.455L666.795 440.416L659.256 472.081H668.005L674.478 444.557C674.579 444.184 674.8 443.853 675.107 443.617C675.414 443.38 675.789 443.251 676.176 443.247H687.568C703.511 443.247 709.662 434.665 715.047 425.294L748 367.427L731.59 367.36Z" fill="black"></path> <path d="M204.306 424.939L205.021 422.53H193.285L192.57 424.956H202.782C203.295 424.913 203.81 424.913 204.323 424.956" fill="black"></path> <path d="M206.673 417.424L207.524 414.548H195.66L193.958 420.386C195.749 418.903 197.902 417.922 200.196 417.544C201.09 417.356 206.69 417.424 206.69 417.424" fill="black"></path> <path d="M229.702 377.423C230.829 376.816 231.808 375.967 232.569 374.937C233.329 373.908 233.853 372.722 234.101 371.466C234.74 368.572 233.838 366.36 231.667 365.509L226.016 365.007L224.97 364.879L224.902 365.364L224.834 365.96L222.17 377.815L222.059 378.402H223.506C225.753 378.402 227.923 378.334 229.702 377.423Z" fill="black"></path> <path d="M167.48 394.019C167.983 393.972 168.468 393.802 168.891 393.525C169.313 393.247 169.662 392.871 169.905 392.428C170.91 391.066 171.608 387.866 171.82 386.998C172.671 383.126 172.561 380.726 170.535 380.726C167.982 380.726 166.961 383.96 166.101 387.823C165.783 389.058 165.615 390.327 165.599 391.602C165.599 394.019 167.216 394.019 167.48 394.019Z" fill="black"></path> <path d="M223.166 441.015H229.243L230.996 435.041H224.928L223.166 441.015Z" fill="black"></path> <path d="M248.628 394.445C249.232 394.412 249.823 394.256 250.364 393.987C250.906 393.718 251.386 393.341 251.777 392.879C252.177 392.276 252.497 391.623 252.73 390.938C253.002 389.815 253.283 388.683 253.538 387.534C253.717 386.76 253.87 386.07 254.006 385.423C254.185 382.785 253.326 381.236 251.7 381.236C249.147 381.236 248.109 384.462 247.249 388.249C246.936 389.482 246.762 390.747 246.73 392.019C246.781 394.428 248.372 394.428 248.628 394.428" fill="black"></path> <path d="M231.054 414.343L229.028 421.151C230.169 420.621 231.34 420.158 232.535 419.764C233.562 419.526 234.606 419.369 235.658 419.296L237.113 414.351L231.054 414.343Z" fill="black"></path> <path d="M298.414 317H235.096C226.084 317 217.088 324.506 214.969 333.749L206.875 369.297C205.623 368.78 204.271 368.55 202.918 368.625L210.978 333.17C211.818 329.741 213.372 326.528 215.54 323.742C217.708 320.955 220.439 318.658 223.556 317H164.17C155.166 317 146.162 324.506 144.042 333.749L136.204 368.157C134.63 368.335 132.638 368.506 131.949 368.642L140.043 333.17C140.88 329.743 142.43 326.532 144.594 323.745C146.757 320.959 149.483 318.661 152.596 317H103.601C94.5794 317 85.5753 324.506 83.4732 333.749L53.4397 465.576C51.3461 474.785 56.929 482.299 65.9331 482.299H116.026C114.77 481.446 113.654 480.404 112.715 479.21C109.754 475.389 108.792 470.317 110.026 464.972L123.319 406.454H127.43L113.983 465.576C111.864 474.785 117.439 482.299 126.46 482.299H186.978C185.724 481.45 184.612 480.407 183.684 479.21C180.706 475.389 179.753 470.317 180.978 464.972L183.352 454.555H187.472L184.969 465.619C182.85 474.827 188.425 482.342 197.446 482.342H260.738C269.76 482.342 278.781 474.827 280.891 465.619L310.908 333.791C313.018 324.506 307.427 317 298.414 317ZM252.347 376.02C253.55 376.475 254.554 377.34 255.181 378.463C255.224 378.139 255.258 377.816 255.309 377.484L255.607 377.229C259.487 376.667 260.56 376.514 264.611 375.739L264.738 376.08C263.995 379.212 263.266 382.349 262.551 385.493C261.062 392.071 260.509 395.416 259.955 398.863L259.59 399.135C255.683 399.135 254.551 399.135 250.934 399.263L250.696 398.956C250.815 398.497 250.934 398.037 251.045 397.56C249.891 398.689 248.393 399.398 246.79 399.577C245.243 399.649 243.701 399.358 242.288 398.726C237.267 396.709 238.032 391.067 238.773 388.012C239.513 384.956 240.628 381.782 243.079 379.45C246.56 376.208 250.628 375.314 252.364 375.995M214.092 372.403L216.586 360.489C216.586 360.489 216.765 359.553 216.884 359.025C218.041 359.161 220.85 359.204 227.854 359.118H230.552C236.041 359.118 240.764 359.195 243.156 362.616C244.061 363.966 244.509 365.571 244.432 367.195C244.423 368.408 244.275 369.616 243.99 370.795C243.175 374.868 240.933 378.517 237.666 381.084C233.003 384.59 227.037 384.59 221.743 384.59H221.19C220.896 384.794 220.64 385.048 220.433 385.339C220.356 385.535 219.139 390.726 219.139 390.726L217.437 398.982C216.382 398.88 213.871 398.88 207.761 398.982C208.041 397.782 214.058 372.48 214.058 372.48M182.893 390.573C183.975 386.049 184.793 381.465 185.344 376.846L185.633 376.616C189.386 376.08 190.297 375.978 194.357 375.118L194.68 375.518L194.093 377.825C194.748 377.408 195.446 376.974 196.127 376.616C197.75 375.83 199.524 375.406 201.327 375.374C203.097 375.374 205.054 375.884 205.888 377.978C206.646 379.859 206.144 382.173 205.114 386.727L204.595 389.033C203.539 394.139 203.378 394.99 202.816 398.497L202.407 398.794C199.165 398.794 198.05 398.794 194.246 398.939L194.101 398.641C194.425 397.177 194.791 395.722 195.131 394.224L195.591 392.207C196.297 389.067 196.969 385.399 197.046 384.318C197.122 383.637 197.335 381.969 195.488 381.969C194.626 382.054 193.792 382.318 193.037 382.744C192.578 384.446 191.65 389.109 191.208 391.254C190.28 395.756 190.212 396.275 189.803 398.497L189.523 398.794C186.186 398.794 185.029 398.794 181.182 398.939L181.021 398.607C181.659 395.935 182.289 393.237 182.893 390.573ZM186.161 411.73L184.621 416.981H173.131L171.88 418.088C171.353 418.615 171.165 418.386 170.468 418.777C169.299 419.405 167.998 419.743 166.672 419.764H162.978L164.476 414.735H165.591C166.238 414.791 166.89 414.689 167.489 414.437C168.017 413.989 168.441 413.431 168.731 412.803L170.842 408.871H179.233L177.787 411.73H186.161ZM114.154 384.284C112.988 388.454 111.669 393.203 106.673 396.199C103.788 397.986 99.5326 398.982 94.988 398.982C91.4731 398.982 85.2434 398.394 83.0732 394.48C82.3476 393.108 81.9926 391.571 82.0435 390.02L82.835 384.003L83.252 382.165L88.0434 360.472C88.0434 360.472 88.2817 359.272 88.3413 359.084C88.4349 359.229 90.0433 359.314 99.2177 359.229C99.1862 359.323 99.1634 359.42 99.1496 359.518C98.2985 362.072 93.6092 381.297 93.6092 381.297L92.6816 387.084L92.7327 388.054C93.0305 390.888 94.7497 392.378 97.6858 392.378C99.4259 392.408 101.117 391.803 102.443 390.675C104.826 388.718 105.515 385.654 106.477 381.39C106.477 381.39 110.979 360.259 111.217 359.101C111.839 359.246 113.771 359.314 120.426 359.246C120.387 359.338 120.361 359.436 120.349 359.535C119.498 362.089 114.681 382.122 114.681 382.122L114.154 384.284ZM140.689 386.727L140.162 389.033C139.123 394.139 138.953 394.99 138.366 398.497L137.992 398.794C134.749 398.794 133.609 398.794 129.821 398.939L129.66 398.641C130.009 397.177 130.358 395.722 130.672 394.224L131.141 392.207C131.838 389.067 132.528 385.399 132.613 384.318C132.672 383.637 132.902 381.969 131.03 381.969C130.174 382.055 129.345 382.319 128.596 382.744C128.136 384.446 127.209 389.109 126.775 391.254C125.839 395.756 125.779 396.275 125.353 398.497L125.073 398.794C121.736 398.794 120.588 398.794 116.741 398.939L116.554 398.607C117.209 395.935 117.839 393.237 118.451 390.573C119.533 386.049 120.352 381.465 120.902 376.846L121.209 376.616C124.945 376.08 125.856 375.978 129.915 375.118L130.255 375.518L129.651 377.825C130.332 377.408 130.987 376.974 131.685 376.616C133.325 375.826 135.117 375.402 136.936 375.374C138.715 375.374 140.655 375.884 141.472 377.978C142.255 379.859 141.736 382.173 140.723 386.727M154.34 385.237C153.983 386.829 153.608 388.395 153.259 389.978C152.536 393.314 152.247 394.565 152.068 395.458C151.889 396.352 151.855 396.769 151.574 398.497L151.396 398.641L151.217 398.794C149.268 398.794 148 398.794 146.783 398.794C145.566 398.794 144.357 398.88 142.528 398.956L142.425 398.794L142.306 398.624C142.572 397.517 142.91 396.428 143.319 395.365C143.699 394.281 144.003 393.172 144.23 392.046C144.8 389.492 145.157 387.79 145.396 386.173C145.634 384.556 145.813 383.39 146 381.918L146.145 381.816L146.298 381.68L150.74 381.016C152.017 380.82 153.293 380.573 155.31 380.165L155.378 380.344L155.438 380.522C155.072 382.097 154.698 383.663 154.315 385.263M154.749 378.454C152.596 379.978 149.379 380.301 147.566 379.22C145.753 378.139 146 375.995 148.17 374.497C150.34 372.999 153.523 372.616 155.344 373.714C157.166 374.812 156.893 376.922 154.749 378.454ZM157.608 387.595C158.315 384.539 159.464 381.331 161.94 378.99C165.412 375.714 169.838 375.527 171.702 375.527C174.791 375.527 177.77 376.242 179.472 378.446C180.587 379.901 181.455 382.284 180.323 387.382C179.974 388.922 178.978 392.65 176.757 395.16C173.914 398.25 170.11 399.305 166.408 399.305C164.62 399.348 162.84 399.06 161.157 398.454C156.102 396.369 156.902 390.743 157.608 387.62M175.233 448.181H165.736C165.009 448.169 164.286 448.069 163.583 447.883C162.893 447.653 162.31 447.182 161.939 446.557C161.569 445.932 161.436 445.194 161.566 444.479L164.28 435.296H159.617L161.166 430.028H165.872L167.114 425.773H162.468L163.94 420.743H184.51L182.995 425.773H174.765L173.489 430.028H181.897L180.357 435.219H171.957L169.923 442.172C169.676 442.93 171.906 443.023 172.723 443.023L176.927 442.436L175.233 448.181ZM192.195 448.181H186.663C184.961 448.181 183.633 448.181 182.74 448.07C181.846 447.96 180.995 448.07 180.408 447.594C179.821 447.117 179.097 446.538 179.114 445.892C179.268 444.925 179.484 443.97 179.761 443.032L189.82 408.913H196.986L195.948 412.615C197.14 411.642 198.436 410.803 199.812 410.113C201.5 409.602 203.224 409.215 204.969 408.956L216.586 408.905L212.629 422.386C212.218 423.971 211.566 425.483 210.697 426.871C210.224 427.654 209.544 428.29 208.731 428.709C207.904 429.194 206.991 429.512 206.041 429.645C205.267 429.705 204.093 429.73 202.467 429.739H191.267L188.101 440.402C187.812 441.475 187.659 441.968 187.863 442.249C187.982 442.423 188.142 442.565 188.329 442.661C188.516 442.758 188.725 442.806 188.935 442.802L193.871 442.317L192.195 448.181ZM210.067 433.934C209.907 434.859 209.461 435.711 208.79 436.368C208.276 436.855 207.667 437.23 207 437.469C206.333 437.708 205.624 437.805 204.918 437.755L200.952 437.926L200.91 441.594C200.867 442.632 201.131 442.521 201.293 442.683C201.447 442.829 201.629 442.942 201.829 443.015L203.08 442.947L206.884 442.717L205.335 448.062H200.969C197.905 448.062 195.633 447.985 194.893 447.381C194.152 446.913 194.042 446.3 194.042 445.287L194.323 431.007H201.293L201.199 433.926H202.901C203.313 433.963 203.727 433.89 204.101 433.713C204.336 433.517 204.502 433.252 204.578 432.956L205.259 430.692H210.748L210.067 433.934ZM234.492 448.147H227.02L227.53 446.445H212.339L213.871 441.338H215.412L223.386 414.335L224.96 408.879H232.62L231.82 411.628C233.026 410.757 234.362 410.079 235.777 409.62C237.377 409.203 245.241 408.99 247.879 408.93H256.024L256.117 412.045C256.117 412.573 256.509 412.82 257.453 412.82H259.155L257.641 417.926H253.241C249.428 418.207 247.99 416.539 248.083 414.641L247.998 411.603L247.147 414.343H244.534L236.688 440.947H238.798L237.156 446.445H235.045L234.492 448.147ZM268.228 424.505H260.049L258.764 428.666H266.977L265.623 433.228H256.764L255.232 435.16H258.824L259.675 440.913C259.697 441.323 259.798 441.724 259.973 442.096C260.569 442.336 261.212 442.438 261.853 442.394H262.892L261.249 447.994H258.483C258.041 447.994 257.419 447.994 256.551 447.917C255.836 447.772 255.158 447.483 254.56 447.066C254.184 446.875 253.858 446.598 253.608 446.258C253.358 445.918 253.192 445.525 253.122 445.109L252.271 439.372L248.228 445.023C247.594 446.02 246.711 446.834 245.666 447.387C244.622 447.939 243.452 448.209 242.271 448.172H236.628L238.101 443.177H240.271C240.826 443.152 241.366 442.991 241.845 442.709C242.346 442.516 242.766 442.159 243.037 441.696L248.909 433.185H241.156L242.475 428.624H251.351L252.619 424.462H243.854L245.36 419.356H269.734L268.228 424.505ZM273.394 408.641L273.036 409.05H273.104L269.947 414.556C269.402 415.603 268.568 416.471 267.543 417.057C266.519 417.643 265.347 417.921 264.168 417.858L259.147 417.79L260.611 412.811H261.59C261.989 412.838 262.389 412.78 262.764 412.641C263.04 412.519 263.267 412.31 263.411 412.045L265.172 409.169C267.666 405.288 268.304 403.611 270.909 399.186C270.449 394.258 270.228 392.658 269.836 389.424C269.623 387.484 269.326 385.51 269.104 383.552C268.611 379.561 268.73 380.148 268.253 377.595V377.535C268.261 377.384 268.278 377.233 268.304 377.084L268.611 376.82C272.491 376.318 272.594 376.174 276.789 375.365L277.13 375.714L277.683 386.778C277.683 387.016 277.683 387.178 277.683 387.399C279.921 382.293 279.828 383.714 282.576 377.246V377.297C282.576 377.246 282.576 377.169 282.627 377.118L282.9 376.854C286.568 376.352 287.308 376.208 291.308 375.399L291.606 375.748C291.606 375.748 275.504 404.028 273.394 408.684" fill="black"></path> <path d="M225.94 431.588C227.089 430.987 228.274 430.458 229.489 430.005C230.74 429.707 232.638 429.469 232.638 429.469L234.111 424.524H228L225.94 431.588Z" fill="black"></path> </svg> 