<?xml version="1.0" encoding="UTF-8"?> <svg xmlns="http://www.w3.org/2000/svg" width="800" height="800" viewBox="0 0 800 800" fill="none"><g clip-path="url(#clip0_4310_2077)"><mask id="mask0_4310_2077" style="mask-type:luminance" maskUnits="userSpaceOnUse" x="50" y="305" width="700" height="190"><path d="M750 305H50V495H750V305Z" fill="white"></path></mask><g mask="url(#mask0_4310_2077)"><path d="M75.2471 354.398L52.4971 341.248C51.3471 340.598 49.8971 341.498 49.9971 342.798C51.2471 359.698 56.4971 391.648 77.5471 428.148C98.5971 464.598 123.597 485.198 137.647 494.698C138.747 495.448 140.247 494.698 140.247 493.298V466.998C140.997 439.448 136.397 417.048 126.497 399.848C116.547 382.648 99.4971 367.498 75.2471 354.348" fill="black"></path><path d="M236.448 326.75C237.598 326.1 237.548 324.4 236.348 323.8C221.098 316.4 190.748 305 148.648 305C106.548 305 76.2478 316.4 60.9478 323.8C59.7478 324.4 59.6978 326.1 60.8478 326.75L83.5978 339.9C107.098 354.35 128.798 361.55 148.648 361.55C168.498 361.55 190.198 354.35 213.698 339.9L236.448 326.75Z" fill="black"></path><path d="M244.798 341.251L222.048 354.401C197.798 367.551 180.698 382.701 170.798 399.901C160.848 417.101 156.298 439.501 157.048 467.051V493.351C157.048 494.701 158.548 495.501 159.648 494.751C173.698 485.251 198.698 464.651 219.748 428.201C240.798 391.751 246.098 359.801 247.298 342.851C247.398 341.501 245.948 340.651 244.798 341.301" fill="black"></path><path d="M345.795 350.25L325.245 396.1L304.695 350.25H274.945L309.695 412.5C311.395 415.55 312.345 419.05 312.345 422.6V449.8H338.645V422.8C338.645 419.35 339.495 415.9 341.195 412.9L375.345 350.3H345.795V350.25Z" fill="black"></path><path d="M510.147 350.25H469.797V449.8H510.147C542.097 449.8 556.297 437.25 556.297 409.15V390.9C556.297 362.85 542.497 350.7 510.147 350.25ZM529.747 409.15C529.747 423.4 524.097 429.2 510.147 429.2H496.047V370.9H510.147C523.897 370.9 529.747 376.9 529.747 390.95V409.2V409.15Z" fill="black"></path><path d="M597.3 410.753H635.05V390.253H597.3V370.853H639.7V350.203H571V449.753H640.85V429.103H597.3V410.703V410.753Z" fill="black"></path><path d="M396.498 350.25L360.648 449.8H387.998L392.448 435.35H427.798L432.248 449.8H459.598L423.748 350.25H396.448H396.498ZM398.498 415.1L410.098 374.5L421.498 415.1H398.498Z" fill="black"></path><path d="M714.15 350.25H686.85L651 449.8H678.35L682.8 435.35H718.15L722.6 449.8H749.95L714.1 350.25H714.15ZM688.95 415.1L700.55 374.5L711.95 415.1H688.95Z" fill="black"></path></g></g><defs><clipPath id="clip0_4310_2077"><rect width="700" height="190" fill="white" transform="translate(50 305)"></rect></clipPath></defs></svg> 