<?xml version="1.0" encoding="UTF-8"?> <svg xmlns:x="ns_extend;" xmlns:i="ns_ai;" xmlns:graph="ns_graphs;" xmlns="http://www.w3.org/2000/svg" xmlns:xlink="http://www.w3.org/1999/xlink" version="1.1" id="Layer_1" x="0px" y="0px" viewBox="0 0 338.3 57" style="enable-background:new 0 0 338.3 57;" xml:space="preserve"> <style type="text/css"> .st0{fill:#FFFFFF;filter:url(#Adobe_OpacityMaskFilter);} .st1{mask:url(#mask0_1_);} </style> <metadata> </metadata> <g> <path d="M20.9,49.9h7.4V7.4H17.5C6.7,7.4,1,12.9,1,21.2c0,6.6,3.1,10.4,8.7,14.4L0,49.9h8l10.8-16.1l-3.7-2.5 c-4.5-3.1-6.7-5.5-6.7-10.6c0-4.5,3.2-7.6,9.2-7.6h3.3V49.9z M163.8,50.5c3.4,0,5.8-0.6,7.5-1.9v-5.9c-1.8,1.3-4,2.1-7.1,2.1 c-5.2,0-7.3-4-7.3-10.4c0-6.7,2.6-10.1,7.4-10.1c2.8,0,5.6,1,7,1.9V20c-1.5-0.9-4.2-1.5-7.8-1.5c-9.3,0-14.1,6.7-14.1,16 C149.3,44.9,154,50.5,163.8,50.5z M118.2,47.9v-5.9c-2.3,1.5-6.1,2.9-9.6,2.9c-5.3,0-7.3-2.5-7.7-7.7h17.6v-3.9 c0-10.7-4.7-14.8-12-14.8c-8.9,0-13.1,6.8-13.1,16.1c0,10.7,5.3,15.9,14.6,15.9C112.6,50.5,116,49.3,118.2,47.9z M51.4,19.1v12.2 h-9.7V19.1h-7.3v30.8h7.3V37.1h9.7v12.9h7.3V19.1H51.4z M91.6,44.2h-3.2v-25H67.1v2.6c0,7.5-0.5,17.3-3.1,22.4h-2.3V57h6.7v-7h16.4 v7h6.7V44.2z M141.5,49.9h8.3L138,33.3l10.3-14.2H141l-10.3,14.2V19.1h-7.3v30.8h7.3V34.8L141.5,49.9z M106.4,24.3 c3.6,0,4.7,3,4.7,6.9v0.6h-10.2C101.1,26.8,102.9,24.3,106.4,24.3z M81.1,44.2H70.8c2-4.7,2.6-13,2.6-18.4v-0.9h7.7V44.2z"> </path> <defs> <filter id="Adobe_OpacityMaskFilter" filterUnits="userSpaceOnUse" x="185.2" y="0" width="52.3" height="57"> <feColorMatrix type="matrix" values="1 0 0 0 0 0 1 0 0 0 0 0 1 0 0 0 0 0 1 0"> </feColorMatrix> </filter> </defs> <mask maskUnits="userSpaceOnUse" x="185.2" y="0" width="52.3" height="57" id="mask0_1_"> <path class="st0" d="M246,29.2c0,16.7-13.9,30.1-31.1,30.1s-31.1-13.5-31.1-30.1c0-16.7,13.9-30.1,31.1-30.1S246,12.6,246,29.2z"> </path> </mask> <g class="st1"> <path d="M233.2,43.9c-4.6,4.1-10.7,6.5-17.2,6.5c-13.8,0-24.2-10.7-24.2-22.9c0-11.5,9.2-20.9,20.5-20.9 c10.7,0,18.5,8.3,18.5,17.3c0,8.4-6.7,15.3-14.8,15.3c-7.5,0-12.8-5.7-12.8-11.7c0-5.4,4.2-9.7,9.1-9.7c4.4,0,7.1,3.2,7.1,6.1 c0,2.5-1.8,4.1-3.5,4.1c-0.6,0-0.8-0.1-1-0.3c0.5-0.7,0.8-1.6,0.7-2.5c-0.3-1.8-1.9-3-3.7-2.8c-1.5,0.2-2.5,1.3-3,2 c-0.5,0.9-0.8,1.9-0.8,3c0,4.3,4,7.1,7.9,7.1c5.7,0,10-5,10-10.7c0-7-6-12.7-13.6-12.7c-8.8,0-15.7,7.5-15.7,16.3 c0,10,8.5,18.3,19.3,18.3c12,0,21.4-10,21.4-21.9c0-12.8-10.9-23.9-25-23.9c-15.1,0-27.1,12.4-27.1,27.5 c0,16.1,13.5,29.5,30.7,29.5c8.2,0,15.8-3.1,21.6-8.2L233.2,43.9z M214.6,27.4C214.6,27.4,214.6,27.4,214.6,27.4L214.6,27.4z"> </path> </g> <path d="M253.8,7.4v42.6H278v-5.8h-16.8V31.4h14v-5.8h-14V13.1h16.5V7.4H253.8z"> </path> <path d="M311.2,44.2H308v-25h-21.3v2.6c0,7.5-0.5,17.3-3.1,22.4h-2.3V57h6.7v-7h16.4v7h6.7V44.2z M300.7,44.2h-10.3 c2-4.7,2.6-13,2.6-18.4v-0.9h7.7V44.2z"> </path> <path d="M337.9,28.9c0-7.5-3.8-10.3-11.5-10.3c-4.8,0-8.6,1.5-10.8,2.8v6.1c2-1.5,6.2-3.1,10-3.1c3.5,0,5.1,1.2,5.1,4.5v1.7h-1.2 c-11.1,0-16.1,3.7-16.1,9.9c0,6.2,3.8,9.7,9.4,9.7c4.3,0,6.1-1.4,7.5-2.9h0.3c0.1,0.8,0.3,1.8,0.5,2.4h7.1c-0.2-2.5-0.4-5-0.4-7.5 V28.9z M330.6,42.6c-0.9,1.3-2.6,2.4-5.2,2.4c-3.1,0-4.6-1.8-4.6-4.6c0-3.6,2.5-4.9,8.8-4.9h1V42.6z"> </path> </g> </svg> 